<?xml version="1.0"?>
<!DOCTYPE svg PUBLIC "-//W3C//DTD SVG 1.1//EN" "http://www.w3.org/Graphics/SVG/1.1/DTD/svg11.dtd">
<svg xmlns="http://www.w3.org/2000/svg" xmlns:xl="http://www.w3.org/1999/xlink" version="1.1" viewBox="0 0 80 80" width="80pt" height="80pt"><metadata xmlns:dc="http://purl.org/dc/elements/1.1/"><dc:date>2016-03-20 23:04Z</dc:date><!-- Produced by OmniGraffle Professional 5.4.4 --></metadata><defs></defs><g stroke="none" stroke-opacity="1" stroke-dasharray="none" fill="none" fill-opacity="1"><title>Area di disegno 1</title><g><title>Livello 1</title><path d="M 40.78714 10.290678 L 65.03714 23.488687 C 66.324007 24.189061 67.125 25.536939 67.125 27.00205 L 67.125 52.99795 C 67.125 54.46306 66.324007 55.81094 65.03714 56.511313 L 40.78714 69.70932 C 39.594946 70.35817 38.155054 70.35817 36.96286 69.70932 L 12.71286 56.511313 C 11.425993 55.81094 10.625 54.46306 10.625 52.99795 L 10.625 27.00205 C 10.625 25.536939 11.425993 24.189061 12.71286 23.488687 L 36.96286 10.290678 C 38.155054 9.641829 39.594946 9.641829 40.78714 10.290678 Z" fill="white"/><path d="M 40.875 70.75 L 41.375 39 L 69.375 25 L 69.125 55.5 Z" fill="#2a8cd5" fill-opacity=".5"/><path d="M 42.53714 10.290678 L 66.78714 23.488687 C 68.074007 24.189061 68.875 25.536939 68.875 27.00205 L 68.875 52.99795 C 68.875 54.46306 68.074007 55.81094 66.78714 56.511313 L 42.53714 69.70932 C 41.344946 70.35817 39.905054 70.35817 38.71286 69.70932 L 14.46286 56.511313 C 13.175993 55.81094 12.375 54.46306 12.375 52.99795 L 12.375 27.00205 C 12.375 25.536939 13.175993 24.189061 14.46286 23.488687 L 38.71286 10.290678 C 39.905054 9.641829 41.344946 9.641829 42.53714 10.290678 Z" stroke="#2a8cd5" stroke-linecap="round" stroke-linejoin="round" stroke-width="7"/></g></g></svg>
