<?xml version="1.0" encoding="utf-8"?>
<!-- Generator: Adobe Illustrator 18.1.1, SVG Export Plug-In . SVG Version: 6.00 Build 0)  -->
<svg version="1.1" xmlns="http://www.w3.org/2000/svg" xmlns:xlink="http://www.w3.org/1999/xlink" x="0px" y="0px"
	 viewBox="0 0 847.9 370" enable-background="new 0 0 847.9 370" xml:space="preserve">
<g id="Layer_1">
	<g>
		<defs>
			<path id="SVGID_1_" d="M536.6,115.3c2.9-1.7,5.8-3.3,8.7-5c0.3,0.4,0.5,0.8,0.8,1.1c1.6,2.2,3.5,4,6.2,4.8c2.5,0.7,5,0.8,7.4-0.1
				c1.6-0.6,2.8-1.6,3.3-3.3c0.6-2,0-4-1.8-5.3c-1.3-0.9-2.8-1.7-4.3-2.4c-2.5-1.2-5-2.2-7.4-3.4c-2.5-1.2-4.7-2.8-6.5-5
				c-2.3-2.8-3.1-6.1-3-9.7c0.1-6.5,4.2-11.7,10.6-13.3c4.7-1.1,9.3-1,13.7,1.3c2.9,1.5,4.9,3.8,6.5,6.6c-2.8,1.8-5.5,3.5-8.3,5.3
				c-0.4-0.6-0.7-1.1-1.1-1.6c-1.8-2.4-4.2-3.3-7.2-2.8c-1.8,0.3-3.1,1.4-3.6,3.3c-0.5,1.9-0.1,3.8,1.6,5c1.3,0.9,2.7,1.7,4.2,2.4
				c2.8,1.3,5.6,2.5,8.3,3.9c2.5,1.3,4.8,3,6.5,5.3c1.5,2.1,2.3,4.5,2.5,7.1c0.3,2.9,0,5.7-1.3,8.4c-1.8,3.5-4.7,5.8-8.3,7
				c-3.5,1.2-7.1,1.5-10.8,1.1c-3.3-0.3-6.4-1.2-9.3-2.9c-3.1-1.8-5.4-4.3-7.1-7.4C536.8,115.6,536.7,115.5,536.6,115.3z"/>
		</defs>
		<clipPath id="SVGID_2_">
			<use xlink:href="#SVGID_1_"  overflow="visible"/>
		</clipPath>
		<g clip-path="url(#SVGID_2_)">
			<defs>
				<rect id="SVGID_3_" x="-1288" y="-4788.3" width="2517.7" height="7425.5"/>
			</defs>
			<clipPath id="SVGID_4_">
				<use xlink:href="#SVGID_3_"  overflow="visible"/>
			</clipPath>
			<rect x="527.9" y="64.3" clip-path="url(#SVGID_4_)" fill="#222222" width="54.5" height="70.7"/>
		</g>
	</g>
	<g>
		<defs>
			<path id="SVGID_5_" d="M520.2,73.7h10.6c0,0.2,0,0.3,0,0.5v35.4c0,2.7-0.2,5.3-1.2,7.8c-1.6,4.1-4.5,6.8-8.8,8
				c-4.6,1.3-9.2,1.2-13.6-0.7c-3.9-1.6-6.5-4.5-8.4-8.3c2.9-1.8,5.8-3.5,8.7-5.3c0.5,0.8,1,1.7,1.5,2.5c1,1.5,2.3,2.6,4.2,2.9
				c1.2,0.2,2.4,0.1,3.6-0.2c2-0.6,2.8-2.1,3.1-4c0.1-0.9,0.2-1.8,0.2-2.8c0-11.6,0-23.2,0-34.8C520.2,74.4,520.2,74.1,520.2,73.7z"
				/>
		</defs>
		<clipPath id="SVGID_6_">
			<use xlink:href="#SVGID_5_"  overflow="visible"/>
		</clipPath>
		<g clip-path="url(#SVGID_6_)">
			<defs>
				<rect id="SVGID_7_" x="-1288" y="-4788.3" width="2517.7" height="7425.5"/>
			</defs>
			<clipPath id="SVGID_8_">
				<use xlink:href="#SVGID_7_"  overflow="visible"/>
			</clipPath>
			<rect x="490.1" y="65" clip-path="url(#SVGID_8_)" fill="#222222" width="49.4" height="70"/>
		</g>
	</g>
	<g>
		<g>
			<path fill="#D8D8D7" d="M79.2,145.7c-0.2,0-0.3,0-0.5-0.1l-45.4-26.1c-0.3-0.2-0.4-0.4-0.5-0.7l-8.5-70.7c-0.1-0.5,0.2-0.9,0.6-1
				l53.8-18.7c0.1,0,0.2-0.1,0.3-0.1v-6.8c-0.1,0-0.2,0-0.3,0.1L18.7,42.5c-0.4,0.1-0.7,0.6-0.6,1l9.5,79c0,0.3,0.2,0.6,0.5,0.7
				l50.7,29.1c0.1,0.1,0.3,0.1,0.5,0.1l0,0L79.2,145.7L79.2,145.7z"/>
			<polygon fill="#E33131" points="79.2,85.3 79.2,60.7 67.8,85.3 			"/>
			<path fill="#E33131" d="M78.9,28.4L25.1,47.1c-0.4,0.1-0.7,0.6-0.6,1l8.5,70.7c0,0.3,0.2,0.6,0.5,0.7l45.4,26.1
				c0.1,0.1,0.3,0.1,0.5,0.1l0,0V95.5h-16l-8,17.5H43.5l35.7-76.8l0,0v-7.9C79.1,28.4,79,28.4,78.9,28.4z"/>
			<polygon fill="#E6E6E6" points="67.8,85.3 79.2,60.7 79.2,36.3 79.2,36.3 43.5,113.1 55.2,113.1 63.3,95.5 79.2,95.5 79.2,85.3 
							"/>
			<path fill="#C7C7C7" d="M79.2,145.7c0.2,0,0.3,0,0.5-0.1l45.4-26.1c0.3-0.2,0.4-0.4,0.5-0.7l8.5-70.7c0.1-0.5-0.2-0.9-0.6-1
				L79.5,28.4c-0.1,0-0.2-0.1-0.3-0.1v-6.8c0.1,0,0.2,0,0.3,0.1l60.2,20.9c0.4,0.1,0.7,0.6,0.6,1l-9.5,79c0,0.3-0.2,0.6-0.5,0.7
				l-50.7,29.1c-0.1,0.1-0.3,0.1-0.5,0.1l0,0L79.2,145.7L79.2,145.7z"/>
			<polygon fill="#A92120" points="79.2,85.3 79.2,60.7 90.6,85.3 			"/>
			<path fill="#A92120" d="M79.5,28.4l53.8,18.7c0.4,0.1,0.7,0.6,0.6,1l-8.5,70.7c0,0.3-0.2,0.6-0.5,0.7l-45.4,26.1
				c-0.1,0.1-0.3,0.1-0.5,0.1l0,0V95.5h16l8,17.5H115L79.2,36.3l0,0v-7.9C79.3,28.4,79.4,28.4,79.5,28.4z"/>
			<polygon fill="#C7C7C7" points="90.6,85.3 79.2,60.7 79.2,36.3 79.2,36.3 115,113.1 103.2,113.1 95.2,95.5 79.2,95.5 79.2,85.3 
							"/>
		</g>
		<g>
			<path fill="#C7C7C7" d="M113.5,52.9c-2,0-3.1,1.5-3.2,3.3h-5.2c0.5-4.5,3.6-7.8,8.4-7.8c5.1,0,8.1,2.8,8.1,7.2c0,3-2.3,5.4-4.8,8
				l-4.6,5h9.7V73h-16.7v-3.3l7.7-8.1c2.1-2.3,3.8-4,3.8-5.8C116.5,54.1,115.4,52.9,113.5,52.9z"/>
		</g>
	</g>
	<g>
		<polygon fill="#0072BA" points="687.4,243.1 640.9,243.1 649.2,337.7 687.4,348.3 725.5,337.7 733.9,243.1 		"/>
		<polygon fill="#24A8DF" points="687.4,340.4 687.5,340.5 718.6,331.8 725.8,250.6 687.4,250.6 		"/>
		<g>
			<polygon fill="#ECEDED" points="673.8,287 674.7,298 686.9,298 686.9,287 			"/>
			<polygon fill="#ECEDED" points="674.2,312.6 673.6,303 661.9,303 663.4,321.6 686.9,328.5 686.9,316.5 			"/>
			<polygon fill="#ECEDED" points="658.2,263 659.3,274 686.9,274 686.9,263 			"/>
		</g>
		<polygon fill="#FFFFFF" points="716.2,263 686.9,263 686.9,274 703.9,274 702.9,287 686.9,287 686.9,298 701.7,298 700.1,313 
			686.9,316.5 686.9,328.5 710.9,321.9 		"/>
		<g>
			<polygon fill="#020202" points="694.5,217.1 678.4,217.1 678.4,222.1 678.4,222.1 678.4,222.1 685.9,229.6 678.4,229.6 
				678.4,234.5 690.9,234.5 691.9,234.5 694.5,234.5 694.5,231.8 694.5,230.2 693.9,229.6 686.4,222.1 694.5,222.1 			"/>
			<polygon fill="#020202" points="714.9,217.1 698.8,217.1 698.8,222.1 698.8,222.1 698.8,222.1 706.3,229.6 698.8,229.6 
				698.8,234.5 711.2,234.5 712.3,234.5 714.9,234.5 714.9,231.8 714.9,230.2 714.2,229.6 706.7,222.1 714.9,222.1 			"/>
			<polygon fill="#020202" points="673.8,221.9 673.8,216.9 665.7,216.9 659.8,216.9 659.8,221.9 659.8,229.7 659.8,230.9 
				659.8,234.7 673.8,234.7 673.8,229.7 665.7,229.7 665.7,221.9 			"/>
		</g>
	</g>
	<g>
		<polygon fill="#E7582B" points="452.7,243 406.2,243 414.6,337.7 452.7,348.3 490.9,337.7 499.2,243 		"/>
		<polygon fill="#F3712E" points="452.7,340.4 452.9,340.5 484,331.8 491.2,250.6 452.7,250.6 		"/>
		<polygon fill="none" points="437.4,286.3 452.7,286.3 452.7,274.4 436.4,274.4 		"/>
		<g>
			<polygon fill="#EEEDED" points="437.4,286.3 436.4,274.4 452.7,274.4 452.7,262.8 423.6,262.8 426.8,297.9 452.7,297.9 
				452.7,286.3 			"/>
			<polygon fill="#EEEDED" points="439.8,312.9 438.9,303.6 427.2,303.6 428.9,321.9 452.7,328.5 452.7,316.5 			"/>
		</g>
		<g>
			<polygon fill="#FFFFFE" points="479.6,286.3 452.7,286.3 452.7,297.9 467,297.9 465.6,312.9 452.7,316.5 452.7,328.5 
				476.4,321.9 			"/>
			<polygon fill="#FFFFFE" points="480.7,274.4 481.6,262.8 452.7,262.8 452.7,274.4 			"/>
		</g>
		<polygon fill="#020202" points="451,216.9 445.9,216.9 439.9,216.9 434.8,216.9 434.8,222.9 439.9,222.9 439.9,234.6 445.9,234.6 
			445.9,222.9 451,222.9 		"/>
		<polygon fill="#020202" points="426.3,216.9 426.3,222.8 421,222.8 421,216.9 415,216.9 415,234.6 421,234.6 421,228.8 
			426.3,228.8 426.3,234.6 432.3,234.6 432.3,216.9 		"/>
		<polygon fill="#020202" points="482.3,228.8 482.3,216.9 476.4,216.9 476.4,228.8 476.4,234.6 476.4,234.7 490.5,234.7 
			490.5,228.8 		"/>
		<polygon fill="#020202" points="467.6,216.9 467.2,216.9 463.5,223.1 459.7,216.9 459.4,216.9 453.4,216.9 453.4,234.6 
			459.4,234.6 459.4,226 463.5,232.1 467.6,226 467.6,234.6 473.5,234.6 473.5,216.9 		"/>
	</g>
	<g>
		<path fill="#F8DC3D" d="M473.2,133.9c0-36.1,0-72.2,0-108.4c36.1,0,72.2,0,108.4,0c0,36.1,0,72.2,0,108.4
			C545.5,133.9,509.4,133.9,473.2,133.9z"/>
		<path fill="#222222" d="M537.6,114.9c2.8-1.6,5.5-3.2,8.3-4.8c0.3,0.4,0.5,0.7,0.7,1c1.5,2.1,3.3,3.9,5.9,4.6
			c2.4,0.7,4.7,0.8,7.1-0.1c1.5-0.6,2.6-1.5,3.1-3.1c0.6-1.9,0-3.9-1.7-5c-1.3-0.9-2.7-1.6-4.1-2.3c-2.3-1.1-4.7-2.1-7.1-3.2
			c-2.4-1.2-4.5-2.7-6.2-4.8c-2.2-2.7-2.9-5.8-2.9-9.2c0.1-6.2,4-11.2,10.1-12.7c4.5-1.1,8.9-0.9,13.1,1.2c2.7,1.4,4.6,3.6,6.2,6.3
			c-2.6,1.7-5.3,3.4-7.9,5.1c-0.4-0.5-0.7-1.1-1-1.5c-1.7-2.3-4-3.2-6.8-2.7c-1.7,0.3-3,1.3-3.4,3.1c-0.4,1.9-0.1,3.6,1.5,4.7
			c1.2,0.9,2.6,1.6,4,2.2c2.6,1.3,5.3,2.4,8,3.7c2.4,1.2,4.6,2.9,6.2,5.1c1.5,2,2.2,4.3,2.4,6.8c0.2,2.8,0,5.5-1.3,8
			c-1.7,3.4-4.4,5.5-7.9,6.7c-3.3,1.2-6.8,1.4-10.2,1.1c-3.1-0.3-6.1-1.1-8.9-2.8c-2.9-1.7-5.2-4.1-6.8-7.1
			C537.8,115.2,537.7,115.1,537.6,114.9z"/>
		<path fill="#222222" d="M521.9,75.3c3.4,0,6.8,0,10.1,0c0,0.2,0,0.3,0,0.5c0,11.2,0,22.5,0,33.7c0,2.5-0.2,5-1.1,7.4
			c-1.5,3.9-4.3,6.5-8.4,7.6c-4.4,1.2-8.7,1.1-13-0.6c-3.7-1.5-6.2-4.3-8-7.9c2.8-1.7,5.5-3.3,8.3-5c0.5,0.8,1,1.6,1.5,2.3
			c1,1.4,2.2,2.5,4,2.8c1.1,0.2,2.3,0.1,3.4-0.2c1.9-0.6,2.6-2,2.9-3.8c0.1-0.9,0.2-1.7,0.2-2.6c0-11.1,0-22.1,0-33.2
			C521.9,76,521.9,75.7,521.9,75.3z"/>
	</g>
	<g>
		<path fill="#333333" d="M119.4,278.9c0-0.7-0.3-1.2-0.9-1.6l-15-8.6c-0.2-0.1-0.5-0.2-0.8-0.2c0,0-0.1,0-0.2,0
			c-0.3,0-0.6,0.1-0.8,0.2l-15,8.6c-0.6,0.3-0.9,0.9-0.9,1.6l0,23.2c0,0.3,0.2,0.6,0.5,0.8c0.3,0.2,0.6,0.2,0.9,0l8.9-5.1
			c0.6-0.3,0.9-0.9,0.9-1.6v-10.8c0-0.7,0.3-1.2,0.9-1.6l3.8-2.2c0.3-0.2,0.6-0.2,0.9-0.2c0.3,0,0.6,0.1,0.9,0.2l3.8,2.2
			c0.6,0.3,0.9,0.9,0.9,1.6v10.8c0,0.7,0.4,1.2,0.9,1.6l8.9,5.1c0.3,0.2,0.6,0.2,0.9,0c0.3-0.2,0.5-0.5,0.5-0.8L119.4,278.9z"/>
		<path fill="#333333" d="M199.4,247c-0.3-0.2-0.6-0.2-0.9,0c-0.3,0.2-0.4,0.5-0.4,0.8v23c0,0.2-0.1,0.4-0.3,0.5
			c-0.2,0.1-0.4,0.1-0.6,0l-3.7-2.2c-0.6-0.3-1.2-0.3-1.8,0l-15,8.6c-0.6,0.3-0.9,0.9-0.9,1.6v17.3c0,0.7,0.3,1.2,0.9,1.6l15,8.6
			c0.6,0.3,1.2,0.3,1.8,0l15-8.6c0.6-0.3,0.9-0.9,0.9-1.6v-43.1c0-0.7-0.4-1.3-0.9-1.6L199.4,247z M198,291c0,0.2-0.1,0.3-0.2,0.4
			l-5.1,3c-0.1,0.1-0.3,0.1-0.5,0l-5.1-3c-0.1-0.1-0.2-0.2-0.2-0.4V285c0-0.2,0.1-0.3,0.2-0.4l5.1-3c0.1-0.1,0.3-0.1,0.5,0l5.1,3
			c0.1,0.1,0.2,0.2,0.2,0.4V291z"/>
		<path fill="#333333" d="M253,284.9c0.6-0.3,0.9-0.9,0.9-1.6v-4.2c0-0.6-0.3-1.2-0.9-1.6l-14.9-8.6c-0.6-0.3-1.2-0.3-1.8,0l-15,8.6
			c-0.6,0.3-0.9,0.9-0.9,1.6v17.3c0,0.7,0.4,1.2,0.9,1.6l14.9,8.5c0.5,0.3,1.2,0.3,1.8,0l9-5c0.3-0.2,0.5-0.5,0.5-0.8
			s-0.2-0.6-0.5-0.8l-15.1-8.6c-0.3-0.2-0.5-0.5-0.5-0.8V285c0-0.3,0.2-0.6,0.5-0.8l4.7-2.7c0.3-0.2,0.6-0.2,0.9,0l4.7,2.7
			c0.3,0.2,0.5,0.5,0.5,0.8v4.3c0,0.3,0.2,0.6,0.5,0.8s0.6,0.2,0.9,0L253,284.9z"/>
		<path fill="#80BD01" d="M146.6,268.8c0.6-0.3,1.2-0.3,1.8,0l15,8.6c0.6,0.3,0.9,0.9,0.9,1.6v17.3c0,0.7-0.3,1.2-0.9,1.6l-15,8.6
			c-0.6,0.3-1.2,0.3-1.8,0l-15-8.6c-0.6-0.3-0.9-0.9-0.9-1.6V279c0-0.7,0.3-1.2,0.9-1.6L146.6,268.8z"/>
		<path fill="#80BD01" d="M282,306.8c-0.5,0-1-0.1-1.5-0.4l-4.7-2.8c-0.7-0.4-0.4-0.5-0.1-0.6c0.9-0.3,1.1-0.4,2.1-1
			c0.1-0.1,0.2,0,0.4,0l3.6,2.1c0.1,0.1,0.3,0.1,0.4,0l14.1-8.2c0.1-0.1,0.2-0.2,0.2-0.4v-16.3c0-0.2-0.1-0.3-0.2-0.4l-14.1-8.1
			c-0.1-0.1-0.3-0.1-0.4,0l-14.1,8.2c-0.1,0.1-0.2,0.2-0.2,0.4v16.3c0,0.2,0.1,0.3,0.2,0.4l3.9,2.2c2.1,1.1,3.4-0.2,3.4-1.4v-16.1
			c0-0.2,0.2-0.4,0.4-0.4h1.8c0.2,0,0.4,0.2,0.4,0.4v16.1c0,2.8-1.5,4.4-4.2,4.4c-0.8,0-1.5,0-3.3-0.9l-3.7-2.1
			c-0.9-0.5-1.5-1.5-1.5-2.6v-16.3c0-1.1,0.6-2,1.5-2.6l14.1-8.2c0.9-0.5,2.1-0.5,3,0l14.1,8.2c0.9,0.5,1.5,1.5,1.5,2.6v16.3
			c0,1.1-0.6,2-1.5,2.6l-14.1,8.2C283.1,306.6,282.5,306.8,282,306.8z"/>
		<path fill="#80BD01" d="M286.4,295.6c-6.2,0-7.5-2.8-7.5-5.2c0-0.2,0.2-0.4,0.4-0.4h1.8c0.2,0,0.4,0.1,0.4,0.4
			c0.3,1.9,1.1,2.8,4.8,2.8c3,0,4.2-0.7,4.2-2.3c0-0.9-0.4-1.6-5-2c-3.9-0.4-6.2-1.2-6.2-4.3c0-2.9,2.4-4.5,6.4-4.5
			c4.5,0,6.8,1.6,7,4.9c0,0.1,0,0.2-0.1,0.3c-0.1,0.1-0.2,0.1-0.3,0.1h-1.8c-0.2,0-0.4-0.1-0.4-0.3c-0.4-2-1.5-2.6-4.4-2.6
			c-3.2,0-3.6,1.1-3.6,2c0,1,0.4,1.3,4.8,1.9c4.3,0.6,6.4,1.4,6.4,4.4C293.4,293.8,290.9,295.6,286.4,295.6z"/>
		<path fill="#80BD01" d="M236.9,284.1c0.1-0.1,0.2-0.1,0.4,0l2.9,1.7c0.1,0.1,0.2,0.2,0.2,0.3v3.3c0,0.1-0.1,0.2-0.2,0.3l-2.9,1.7
			c-0.1,0.1-0.2,0.1-0.4,0l-2.9-1.7c-0.1-0.1-0.2-0.2-0.2-0.3V286c0-0.1,0.1-0.2,0.2-0.3L236.9,284.1z"/>
		<g>
			<path fill="#80BD01" d="M308.9,273c0,1.5-1.2,2.7-2.7,2.7c-1.5,0-2.7-1.2-2.7-2.7c0-1.5,1.3-2.7,2.7-2.7
				C307.6,270.3,308.9,271.5,308.9,273z M303.9,273c0,1.3,1,2.3,2.3,2.3c1.3,0,2.3-1,2.3-2.3c0-1.3-1-2.3-2.3-2.3
				C304.9,270.8,303.9,271.8,303.9,273z M305.2,271.5h1.1c0.4,0,1.1,0,1.1,0.8c0,0.6-0.4,0.7-0.6,0.8c0.4,0,0.4,0.3,0.5,0.7
				c0,0.2,0.1,0.7,0.2,0.8h-0.7c0-0.1-0.1-0.9-0.1-1c0-0.2-0.1-0.3-0.3-0.3h-0.5v1.2h-0.6L305.2,271.5L305.2,271.5z M305.7,272.8
				h0.5c0.4,0,0.5-0.3,0.5-0.4c0-0.4-0.3-0.4-0.4-0.4h-0.5L305.7,272.8L305.7,272.8z"/>
		</g>
	</g>
	<g>
		<path fill="#53C7EA" d="M259.4,60.5c-0.2-1.1-0.5-2.1-0.7-3.2c-0.5-2.4-0.9-4.7-1.1-7.1c-0.3-2.6-0.4-5.1-0.3-7.7
			c0.2-3.5,0.7-7,2.2-10.2c1.1-2.3,2.6-4.2,4.8-5.5c1.4-0.8,3-1.3,4.7-1.4c3.2-0.3,6.2,0.5,9.2,1.6c4.1,1.6,7.9,3.9,11.4,6.5
			c2.3,1.7,4.4,3.5,6.4,5.4c0.1,0.1,0.2,0.2,0.3,0.3c0.7-0.6,1.4-1.3,2.1-1.9c3.8-3.5,7.9-6.5,12.5-8.9c2.4-1.2,4.8-2.2,7.4-2.8
			c2.3-0.5,4.5-0.6,6.8-0.1c2.7,0.7,4.8,2.2,6.4,4.6c1.5,2.2,2.3,4.7,2.9,7.2c0.6,2.9,0.8,5.9,0.7,8.9c-0.1,4.7-0.9,9.4-1.9,14
			c0,0.1,0,0.2-0.1,0.3c1,0.3,2,0.6,3,0.9c5.1,1.7,10,3.8,14.5,6.9c2.6,1.8,4.9,3.8,6.7,6.4c1.2,1.7,2.1,3.6,2.3,5.7
			c0.3,2.1-0.2,4.1-1.1,6c-1,2.2-2.6,4.1-4.3,5.7c-2.7,2.5-5.8,4.5-9.1,6.2c-3.7,1.9-7.5,3.3-11.5,4.5c-0.1,0-0.2,0.1-0.3,0.1
			c0.2,0.8,0.3,1.5,0.5,2.3c0.5,2.3,0.9,4.7,1.1,7.1c0.3,2.7,0.4,5.5,0.3,8.2c-0.2,3.7-0.8,7.3-2.4,10.6c-1.1,2.3-2.6,4.2-4.8,5.5
			c-1.9,1.2-4.1,1.6-6.3,1.5c-2.5,0-4.8-0.6-7.1-1.5c-3.8-1.4-7.3-3.5-10.5-5.9c-2.6-1.9-5-4-7.3-6.2c-0.1-0.1-0.2-0.2-0.3-0.3
			c-0.2,0.2-0.5,0.4-0.7,0.7c-3.7,3.4-7.6,6.5-12,9c-2.8,1.6-5.7,2.8-8.8,3.6c-1.9,0.5-3.8,0.7-5.8,0.5c-3.8-0.3-6.7-2.1-8.7-5.3
			c-1.3-2.1-2.1-4.5-2.6-6.9c-0.6-3-0.7-6-0.6-9.1c0.2-4.5,1-9,2-13.4c0,0,0-0.1,0-0.2c-0.7-0.2-1.3-0.4-1.9-0.6
			c-4.4-1.4-8.7-3.2-12.7-5.6c-3-1.8-5.7-3.8-8-6.4c-1.7-1.9-3-4-3.7-6.5c-0.7-2.8-0.2-5.5,1.1-8c1.1-2.2,2.7-3.9,4.6-5.5
			c3.1-2.7,6.6-4.7,10.4-6.4c3.3-1.5,6.7-2.7,10.1-3.7C259.2,60.6,259.3,60.6,259.4,60.5z M296,102.3c0,0,0-0.1,0-0.1
			c1.4,0,2.8,0,4.2,0c2.5-0.1,4.9-0.2,7.4-0.3c0.3,0,0.4-0.2,0.5-0.4c4.1-6.2,7.9-12.7,11.2-19.4c0.1-0.3,0.1-0.5,0-0.7
			c-3.3-6.7-7-13.1-11.2-19.3c-0.2-0.2-0.3-0.4-0.6-0.4c-0.3,0-0.7,0-1-0.1c-2.5-0.1-5.1-0.3-7.6-0.3c-4.6-0.1-9.2,0-13.9,0.4
			c-0.1,0-0.3,0.1-0.4,0.2c-4.2,6.2-8,12.7-11.3,19.5c-0.1,0.2-0.1,0.4,0,0.6c2,4.1,4.1,8.1,6.5,12c1.5,2.5,3.2,5,4.8,7.5
			c0.1,0.1,0.2,0.3,0.4,0.3c0.7,0.1,1.5,0.1,2.2,0.1C290,102.1,293,102.2,296,102.3z M260.8,65.8c-0.1,0-0.2,0-0.3,0.1
			c-3.2,0.9-6.3,2-9.3,3.4c-3.2,1.5-6.3,3.2-9,5.6c-1.3,1.2-2.5,2.4-3.4,4c-1,1.8-1.1,3.7-0.1,5.6c0.5,1,1.2,1.9,1.9,2.8
			c2,2.2,4.3,3.9,6.8,5.4c4,2.4,8.2,4.1,12.7,5.4c0.2,0.1,0.4,0.1,0.6,0.2c0-0.1,0.1-0.2,0.1-0.2c1.7-5.4,3.7-10.7,6.1-15.8
			c0.1-0.2,0.1-0.3,0-0.5c-1.8-3.8-3.4-7.7-4.7-11.7C261.7,68.5,261.3,67.2,260.8,65.8z M264.6,104.6c0,0.1-0.1,0.1-0.1,0.1
			c-1,4-1.7,8.1-1.9,12.2c-0.1,2.7,0,5.4,0.5,8c0.3,1.7,0.9,3.4,1.8,4.9c1,1.6,2.3,2.6,4.2,2.8c1.5,0.2,3,0,4.5-0.3
			c3.3-0.8,6.3-2.3,9.2-4.1c3.4-2.1,6.4-4.6,9.3-7.3c0.1-0.1,0.3-0.3,0.4-0.4c0-0.1-0.1-0.1-0.1-0.1c-3.8-4.1-7.3-8.4-10.5-13
			c-0.2-0.3-0.5-0.4-0.8-0.4c-0.6,0-1.2-0.1-1.9-0.2c-1.8-0.2-3.7-0.4-5.5-0.7c-2.3-0.3-4.6-0.7-6.9-1.1
			C266.1,105,265.4,104.8,264.6,104.6z M300.2,120.6c0.1,0.1,0.2,0.1,0.3,0.2c2.3,2.2,4.7,4.3,7.3,6.1c2.5,1.7,5,3.3,7.8,4.5
			c2,0.8,4,1.4,6.2,1.5c1.4,0,2.8-0.2,4-1.2c1.1-0.9,1.8-2.1,2.4-3.4c1.1-2.5,1.5-5.1,1.6-7.8c0.2-2.6,0-5.2-0.2-7.8
			c-0.3-2.7-0.8-5.4-1.4-8c-0.1-0.2-0.1-0.3-0.4-0.2c-1.9,0.4-3.8,0.8-5.6,1.1c-1.8,0.3-3.6,0.6-5.4,0.8c-1.8,0.2-3.6,0.4-5.4,0.6
			c-0.3,0-0.5,0.1-0.7,0.4c-2.5,3.6-5.1,7.1-8,10.4C301.8,118.7,301,119.6,300.2,120.6z M292.4,43.1c-0.1-0.1-0.2-0.2-0.3-0.2
			c-1.1-1-2.2-2-3.3-2.9c-3.2-2.6-6.5-5-10.2-6.8c-2.5-1.2-5-2.1-7.8-2.3c-1.5-0.1-3,0.1-4.3,1c-1,0.7-1.6,1.7-2.1,2.8
			c-1.2,2.5-1.5,5.3-1.7,8c-0.1,2.8,0,5.5,0.4,8.3c0.3,2.7,0.9,5.3,1.5,7.9c0.1,0.2,0.2,0.2,0.4,0.2c1.4-0.3,2.8-0.6,4.1-0.8
			c2.3-0.4,4.7-0.8,7-1.1c1.7-0.2,3.4-0.4,5.1-0.6c0.3,0,0.5-0.1,0.7-0.4c2.7-3.8,5.6-7.5,8.7-11C291.2,44.6,291.8,43.9,292.4,43.1z
			 M300,43.2c0.1,0.1,0.2,0.2,0.3,0.3c1.6,1.9,3.3,3.7,4.9,5.7c1.9,2.3,3.6,4.8,5.4,7.2c0.1,0.1,0.2,0.2,0.4,0.3
			c2.3,0.3,4.5,0.5,6.8,0.8c2.4,0.4,4.9,0.8,7.3,1.3c0.9,0.2,1.8,0.4,2.7,0.6c0-0.1,0.1-0.2,0.1-0.2c0.9-3.7,1.5-7.4,1.7-11.2
			c0.2-3,0.1-5.9-0.4-8.9c-0.3-1.8-0.9-3.6-1.8-5.2c-0.8-1.3-1.8-2.4-3.3-2.8c-1.5-0.4-3-0.3-4.5,0c-2.6,0.5-5,1.6-7.3,2.9
			c-3.7,2-7,4.6-10.1,7.4C301.4,41.9,300.7,42.5,300,43.2z M331.8,97.8c0.1,0,0.2,0,0.2-0.1c4-1.2,7.8-2.7,11.5-4.7
			c2.5-1.3,4.8-2.9,6.9-4.8c1.3-1.2,2.5-2.6,3.2-4.2c0.5-1,0.7-2.1,0.5-3.3c-0.3-1.5-1.1-2.8-2.1-3.9c-1.9-2.2-4.3-3.9-6.8-5.4
			c-3.9-2.3-8-3.9-12.3-5.2c-0.4-0.1-0.8-0.2-1.3-0.4c0,0.1-0.1,0.2-0.1,0.2c-1.6,5.2-3.7,10.3-6,15.3c-0.1,0.2-0.1,0.4,0,0.6
			c1.8,3.7,3.4,7.5,4.8,11.4C330.8,94.8,331.3,96.3,331.8,97.8z M326.5,99.2c-0.4-1.7-3.7-10.4-4.3-11.1c-2.3,4.5-4.8,8.8-7.5,13.1
			C318.7,100.7,322.6,100,326.5,99.2z M277.7,101.3c-2.7-4.3-5.2-8.6-7.6-13.1c-1.6,3.7-2.9,7.4-4.1,11.2
			C269.9,100.2,273.8,100.8,277.7,101.3z M296.4,116.7c2.6-2.9,5.1-6,7.4-9.1c-5,0-10,0-15,0C291.2,110.7,293.7,113.8,296.4,116.7z
			 M303.6,56c-0.6-1.1-6.3-7.9-7.4-8.9c-2.6,2.8-5.1,5.8-7.5,8.9C293.7,56,298.7,56,303.6,56z M322.3,75.3c1.5-3.5,2.9-7.1,4-10.8
			c-3.8-0.9-7.6-1.5-11.4-2C317.3,66.8,319.8,71,322.3,75.3z M266.1,64.4c1.2,3.7,2.5,7.3,4,11c2.3-4.5,4.8-8.7,7.5-13
			C273.7,62.9,269.9,63.6,266.1,64.4z"/>
		<path fill="#53C7EA" d="M307.5,81.7c0,6.3-5.1,11.4-11.4,11.3c-6.2,0-11.3-5.1-11.3-11.3c0-6.3,5.1-11.3,11.4-11.3
			C302.5,70.4,307.5,75.4,307.5,81.7z"/>
	</g>
	<path fill="#3B9CB2" d="M812.7,117.5c-0.4-1.6-0.7-4.1-0.8-7.4l-0.4-11.6c-0.2-5-1.1-8.7-2.9-10.9c-1.7-2.2-4.3-4-7.6-5.4
		c3.9-2,6.9-4.7,9-8c2.2-3.3,3.2-7.6,3.2-12.7c0-9.9-4-16.8-12-20.5c-4.2-1.9-9.6-2.9-16.1-2.9h-21.9v0c-1.7-1.6-3.5-3-5.2-4.4
		c-4-3-7.6-5.1-11.3-6.5c-3.6-1.4-6.6-1.9-9.6-1.6c-1.9,0.2-3.7,0.7-5.2,1.6c-2.3,1.3-4,3.3-5.3,6c-1.4,2.9-2.1,6.2-2.3,10.5
		c-0.1,2.4,0,4.8,0.3,7.6c0.2,2.3,0.6,4.6,1.1,7c0.1,0.4,0.2,0.9,0.3,1.3c-3.1,0.9-5.8,2-8.4,3.2c-4.3,1.9-7.6,4-10.4,6.4
		c-2.1,1.9-3.7,3.8-4.8,5.8c-1.6,3-2,6-1.2,9c0.6,2.4,1.9,4.7,3.9,7c2.1,2.4,4.7,4.4,8.1,6.5c3.7,2.2,7.7,4,12.5,5.5
		c0.1,0,0.1,0,0.2,0.1c-0.9,4.2-1.5,7.9-1.6,11.5c-0.1,3.4,0.1,6.4,0.6,9.1c0.5,2.8,1.4,5.2,2.7,7.2c2.3,3.6,5.5,5.6,9.7,6
		c1.9,0.2,3.9,0,6.2-0.5c2.9-0.7,5.8-1.9,8.9-3.6c8.7-4.8,16.7-13.8,16.7-14.8c0-1,0-30.4,0-30.4h14.4c4.7,0,8.1,0.5,10.3,1.6
		c3.8,1.9,5.9,5.7,6.1,11.4l0.7,14.4c0.2,3.4,0.3,5.7,0.6,6.9s0.5,2.1,0.9,2.9h14.4v-1.9C814.7,122,813.4,120.3,812.7,117.5z
		 M757.3,104l-4.8-6.6c-1.1-1.7-2.3-3.5-3.4-5.3c-2-3.3-4-6.9-5.9-10.8c3-6,6.6-12.1,10-17.3c1.2-1.8,2.6-3.8,4-5.7V104z
		 M733.2,44.1c0.1-2,0.4-4.6,1.4-7c0.4-1,0.9-1.6,1.4-2c0.6-0.4,1.3-0.6,2.3-0.6c0.2,0,0.4,0,0.5,0c2,0.1,4.1,0.7,6.7,2
		c3.1,1.5,6.1,3.5,9.4,6.2c0.7,0.6,1.3,1.1,2,1.7c-0.2,0.2-0.4,0.4-0.5,0.6c-2.8,3.1-5.5,6.5-8.2,10.3c-1.5,0.1-3,0.3-4.5,0.5
		c-2.2,0.3-4.4,0.7-6.7,1.1c-0.8,0.1-1.7,0.3-2.5,0.5c-0.5-2-0.8-3.9-1-5.8C733.2,48.9,733,46.4,733.2,44.1z M738.6,91.8
		c1.1,1.9,2.2,3.8,3.3,5.7c-1.7-0.3-3.4-0.5-5-0.9C737.4,95.1,738,93.5,738.6,91.8z M737,66.1c1.6-0.3,3.2-0.6,4.8-0.9
		c-1.1,1.8-2.1,3.6-3.2,5.5C738,69.2,737.5,67.7,737,66.1z M728.2,94.5c-4-1.3-7.4-2.8-10.5-4.6c-2.6-1.5-4.5-3-6-4.8
		c-0.6-0.7-1.1-1.5-1.6-2.3c-0.6-1.2-0.6-2.3,0.1-3.6c0.6-1.1,1.5-2.2,2.8-3.3c2.1-1.8,4.7-3.4,8.2-5c2.1-1,4.5-1.9,7.1-2.7
		c0.2,0.7,0.5,1.5,0.7,2.2c1.2,3.5,2.7,7.2,4.4,10.8C731.3,85.9,729.6,90.2,728.2,94.5z M749.6,124.1c-3,1.9-5.7,3.1-8.3,3.7
		c-0.9,0.2-1.8,0.3-2.6,0.3l0,0c-0.3,0-0.7,0-1-0.1c-1.1-0.1-1.9-0.7-2.6-1.8c-0.7-1.1-1.1-2.4-1.5-4.1c-0.4-2.1-0.6-4.5-0.5-7.2
		c0.1-3,0.6-6.1,1.3-9.7c0.2,0,0.3,0.1,0.5,0.1l1,0.2c1.8,0.3,3.7,0.6,5.6,0.9c1.4,0.2,2.8,0.3,4.1,0.5l1.2,0.1
		c0.5,0.1,1,0.1,1.5,0.1c2.8,3.9,5.8,7.6,8.8,11C754.7,120.5,752.2,122.4,749.6,124.1z M796.6,74.5c-3.1,2.2-7.4,3.3-12.7,3.3H769
		V48.2h16.3c3.9,0,7,0.6,9.3,1.8c4.4,2.2,6.5,6.4,6.5,12.6C801.2,68.3,799.7,72.3,796.6,74.5z"/>
</g>
<g id="Layer_2">
</g>
</svg>
